<?xml version="1.0" encoding="UTF-8"?>
<svg xmlns="http://www.w3.org/2000/svg" width="800" height="450" viewBox="0 0 800 450">
  <defs>
    <linearGradient id="bg" x1="0" y1="0" x2="1" y2="1">
      <stop offset="0%" stop-color="hsl(80, 55%, 12%)"/>
      <stop offset="100%" stop-color="hsl(40, 60%, 18%)"/>
    </linearGradient>
  </defs>
  <rect width="800" height="450" fill="url(#bg)"/>
  <circle cx="37" cy="71" r="20" fill="hsl(80, 70%, 45%)" opacity="0.35"/>
  <circle cx="134" cy="124" r="33" fill="hsl(88, 70%, 45%)" opacity="0.36"/>
  <circle cx="231" cy="177" r="46" fill="hsl(96, 70%, 45%)" opacity="0.37"/>
  <circle cx="328" cy="230" r="59" fill="hsl(104, 70%, 45%)" opacity="0.38"/>
  <circle cx="425" cy="283" r="72" fill="hsl(112, 70%, 45%)" opacity="0.39"/>
  <circle cx="522" cy="336" r="25" fill="hsl(120, 70%, 45%)" opacity="0.35"/>
  <circle cx="619" cy="389" r="38" fill="hsl(128, 70%, 45%)" opacity="0.36"/>
  <circle cx="716" cy="442" r="51" fill="hsl(136, 70%, 45%)" opacity="0.37"/>
  <circle cx="13" cy="45" r="64" fill="hsl(144, 70%, 45%)" opacity="0.38"/>
  <circle cx="110" cy="98" r="77" fill="hsl(152, 70%, 45%)" opacity="0.39"/>
  <circle cx="207" cy="151" r="30" fill="hsl(160, 70%, 45%)" opacity="0.35"/>
  <circle cx="304" cy="204" r="43" fill="hsl(168, 70%, 45%)" opacity="0.36"/>
  <ellipse cx="200" cy="400" rx="180" ry="120" fill="hsl(80, 55%, 25%)"/>
  <ellipse cx="600" cy="380" rx="200" ry="140" fill="hsl(40, 50%, 28%)"/>
  <text x="40" y="60" fill="#e8f7ff" font-family="Arial,sans-serif" font-size="28" font-weight="700">Jungle Explorer</text>
  <text x="40" y="95" fill="hsl(40, 80%, 70%)" font-family="Arial,sans-serif" font-size="18">Chapter 1</text>
  <rect x="40" y="400" width="200" height="6" rx="3" fill="hsl(40, 90%, 55%)"/>
</svg>